<svg width="27" height="24" viewBox="0 0 27 24" fill="none" xmlns="http://www.w3.org/2000/svg">
<path d="M18.9646 0C16.6888 0 14.5046 1.0594 13.079 2.73352C11.6534 1.0594 9.46921 0 7.19346 0C3.16512 0 0 3.16512 0 7.19346C0 12.1373 4.44687 16.1657 11.1826 22.2866L13.079 24L14.9755 22.2736C21.7112 16.1657 26.158 12.1373 26.158 7.19346C26.158 3.16512 22.9929 0 18.9646 0ZM13.2098 20.3379L13.079 20.4687L12.9482 20.3379C6.72261 14.7008 2.6158 10.9733 2.6158 7.19346C2.6158 4.57766 4.57766 2.6158 7.19346 2.6158C9.20763 2.6158 11.1695 3.91063 11.8627 5.70245H14.3084C14.9886 3.91063 16.9504 2.6158 18.9646 2.6158C21.5804 2.6158 23.5422 4.57766 23.5422 7.19346C23.5422 10.9733 19.4354 14.7008 13.2098 20.3379Z" fill="#050303"/>
</svg>
