<svg width="62" height="60" viewBox="0 0 62 60" fill="none" xmlns="http://www.w3.org/2000/svg">
<path d="M31 0C13.888 0 0 13.3736 0 29.8519C0 46.3301 13.888 59.7037 31 59.7037C48.112 59.7037 62 46.3301 62 29.8519C62 13.3736 48.112 0 31 0ZM31 8.95555C36.146 8.95555 40.3 12.9557 40.3 17.9111C40.3 22.8665 36.146 26.8667 31 26.8667C25.854 26.8667 21.7 22.8665 21.7 17.9111C21.7 12.9557 25.854 8.95555 31 8.95555ZM31 51.3452C23.25 51.3452 16.399 47.5241 12.4 41.7329C12.493 35.7924 24.8 32.5385 31 32.5385C37.169 32.5385 49.507 35.7924 49.6 41.7329C45.601 47.5241 38.75 51.3452 31 51.3452Z" fill="#514630"/>
</svg>
